<svg xmlns="http://www.w3.org/2000/svg" viewBox="0 0 1024 1024" width="1024" height="1024">
  <defs>
    <radialGradient id="bg" cx="0.5" cy="0.5" r="0.7">
      <stop offset="0" stop-color="#FBF8EE"/>
      <stop offset="1" stop-color="#F1ECDF"/>
    </radialGradient>
    <linearGradient id="gold" x1="0" y1="0" x2="1" y2="1">
      <stop offset="0" stop-color="#A88830"/>
      <stop offset="1" stop-color="#5E4708"/>
    </linearGradient>
  </defs>

  <rect x="0" y="0" width="1024" height="1024" rx="232" ry="232" fill="url(#bg)"/>

  <rect x="56" y="56" width="912" height="912" rx="200" ry="200"
        fill="none" stroke="rgba(20,20,20,0.05)" stroke-width="2"/>

  <g transform="translate(512 512)">
    <circle cx="0" cy="0" r="380" fill="none"
            stroke="rgba(20,20,20,0.35)" stroke-width="3"/>
    <path d="M 380 0 A 380 380 0 0 0 0 -380"
          fill="none" stroke="url(#gold)" stroke-width="6"
          stroke-linecap="round" opacity="0.95"/>
    <path d="M 0 0 L 380 0 A 380 380 0 0 0 268.7 -268.7 Z"
          fill="url(#gold)" opacity="0.16"/>

    <circle cx="0" cy="0" r="190" fill="none"
            stroke="rgba(20,20,20,0.32)" stroke-width="3"/>
    <path d="M 190 0 A 190 190 0 0 0 0 -190"
          fill="none" stroke="url(#gold)" stroke-width="5"
          stroke-linecap="round"/>

    <line x1="-380" y1="0" x2="380" y2="0"
          stroke="rgba(20,20,20,0.18)" stroke-width="2"/>
    <line x1="0" y1="-380" x2="0" y2="380"
          stroke="rgba(20,20,20,0.18)" stroke-width="2"/>

    <circle cx="0" cy="0" r="6" fill="#1A1A1A"/>

    <circle cx="268.7" cy="-268.7" r="44" fill="url(#gold)" opacity="0.20"/>
    <circle cx="268.7" cy="-268.7" r="22" fill="url(#gold)" opacity="0.55"/>
    <circle cx="268.7" cy="-268.7" r="11" fill="#8B6B14"/>
  </g>
</svg>
